<mxfile host="app.diagrams.net" modified="2023-06-08T12:59:51.302Z" agent="Mozilla/5.0 (Windows NT 10.0; Win64; x64) AppleWebKit/537.36 (KHTML, like Gecko) Chrome/113.0.0.0 Safari/537.36 OPR/99.0.0.0" etag="XD59ADGUjx5_PluuUQai" version="21.3.7" type="device">
  <diagram name="Page-1" id="2YBvvXClWsGukQMizWep">
    <mxGraphModel dx="2041" dy="581" grid="1" gridSize="10" guides="1" tooltips="1" connect="1" arrows="1" fold="1" page="1" pageScale="1" pageWidth="850" pageHeight="1100" math="0" shadow="0">
      <root>
        <mxCell id="0" />
        <mxCell id="1" parent="0" />
        <mxCell id="aM9ryv3xv72pqoxQDRHE-1" value="Beholder" style="shape=umlLifeline;perimeter=lifelinePerimeter;whiteSpace=wrap;html=1;container=0;dropTarget=0;collapsible=0;recursiveResize=0;outlineConnect=0;portConstraint=eastwest;newEdgeStyle={&quot;edgeStyle&quot;:&quot;elbowEdgeStyle&quot;,&quot;elbow&quot;:&quot;vertical&quot;,&quot;curved&quot;:0,&quot;rounded&quot;:0};size=40;" parent="1" vertex="1">
          <mxGeometry x="30" y="40" width="100" height="1310" as="geometry" />
        </mxCell>
        <mxCell id="aM9ryv3xv72pqoxQDRHE-2" value="" style="html=1;points=[];perimeter=orthogonalPerimeter;outlineConnect=0;targetShapes=umlLifeline;portConstraint=eastwest;newEdgeStyle={&quot;edgeStyle&quot;:&quot;elbowEdgeStyle&quot;,&quot;elbow&quot;:&quot;vertical&quot;,&quot;curved&quot;:0,&quot;rounded&quot;:0};" parent="aM9ryv3xv72pqoxQDRHE-1" vertex="1">
          <mxGeometry x="45" y="70" width="10" height="90" as="geometry" />
        </mxCell>
        <mxCell id="aM9ryv3xv72pqoxQDRHE-3" value="Event: GetMessage" style="html=1;verticalAlign=bottom;startArrow=oval;endArrow=block;startSize=8;edgeStyle=elbowEdgeStyle;elbow=vertical;curved=0;rounded=0;" parent="aM9ryv3xv72pqoxQDRHE-1" target="aM9ryv3xv72pqoxQDRHE-2" edge="1">
          <mxGeometry x="-1" y="10" relative="1" as="geometry">
            <mxPoint x="-40" y="70" as="sourcePoint" />
            <mxPoint as="offset" />
          </mxGeometry>
        </mxCell>
        <mxCell id="8wNnxw2Mur5SKuWLHebN-1" value="" style="html=1;points=[];perimeter=orthogonalPerimeter;outlineConnect=0;targetShapes=umlLifeline;portConstraint=eastwest;newEdgeStyle={&quot;edgeStyle&quot;:&quot;elbowEdgeStyle&quot;,&quot;elbow&quot;:&quot;vertical&quot;,&quot;curved&quot;:0,&quot;rounded&quot;:0};" parent="aM9ryv3xv72pqoxQDRHE-1" vertex="1">
          <mxGeometry x="50" y="100" width="10" height="40" as="geometry" />
        </mxCell>
        <mxCell id="8wNnxw2Mur5SKuWLHebN-2" value="records = GetRecordsAmmount()" style="html=1;align=left;spacingLeft=2;endArrow=block;rounded=0;edgeStyle=orthogonalEdgeStyle;curved=0;rounded=0;" parent="aM9ryv3xv72pqoxQDRHE-1" target="8wNnxw2Mur5SKuWLHebN-1" edge="1">
          <mxGeometry relative="1" as="geometry">
            <mxPoint x="55" y="80" as="sourcePoint" />
            <Array as="points">
              <mxPoint x="85" y="110" />
            </Array>
          </mxGeometry>
        </mxCell>
        <mxCell id="8wNnxw2Mur5SKuWLHebN-6" value="" style="html=1;points=[];perimeter=orthogonalPerimeter;outlineConnect=0;targetShapes=umlLifeline;portConstraint=eastwest;newEdgeStyle={&quot;edgeStyle&quot;:&quot;elbowEdgeStyle&quot;,&quot;elbow&quot;:&quot;vertical&quot;,&quot;curved&quot;:0,&quot;rounded&quot;:0};" parent="aM9ryv3xv72pqoxQDRHE-1" vertex="1">
          <mxGeometry x="45" y="200" width="10" height="430" as="geometry" />
        </mxCell>
        <mxCell id="8wNnxw2Mur5SKuWLHebN-7" value="" style="html=1;points=[];perimeter=orthogonalPerimeter;outlineConnect=0;targetShapes=umlLifeline;portConstraint=eastwest;newEdgeStyle={&quot;edgeStyle&quot;:&quot;elbowEdgeStyle&quot;,&quot;elbow&quot;:&quot;vertical&quot;,&quot;curved&quot;:0,&quot;rounded&quot;:0};" parent="aM9ryv3xv72pqoxQDRHE-1" vertex="1">
          <mxGeometry x="50" y="229.99999999999997" width="10" height="40" as="geometry" />
        </mxCell>
        <mxCell id="8wNnxw2Mur5SKuWLHebN-8" value="&lt;br&gt;&lt;span style=&quot;color: rgb(0, 0, 0); font-family: Helvetica; font-size: 11px; font-style: normal; font-variant-ligatures: normal; font-variant-caps: normal; font-weight: 400; letter-spacing: normal; orphans: 2; text-align: center; text-indent: 0px; text-transform: none; widows: 2; word-spacing: 0px; -webkit-text-stroke-width: 0px; background-color: rgb(255, 255, 255); text-decoration-thickness: initial; text-decoration-style: initial; text-decoration-color: initial; float: none; display: inline !important;&quot;&gt;table = GetVirtualTable()&lt;/span&gt;&lt;br&gt;" style="html=1;align=left;spacingLeft=2;endArrow=block;rounded=0;edgeStyle=orthogonalEdgeStyle;curved=0;rounded=0;" parent="aM9ryv3xv72pqoxQDRHE-1" target="8wNnxw2Mur5SKuWLHebN-7" edge="1">
          <mxGeometry x="0.1991" relative="1" as="geometry">
            <mxPoint x="55" y="209.99999999999997" as="sourcePoint" />
            <Array as="points">
              <mxPoint x="80" y="209.97" />
              <mxPoint x="80" y="239.97" />
            </Array>
            <mxPoint as="offset" />
          </mxGeometry>
        </mxCell>
        <mxCell id="8wNnxw2Mur5SKuWLHebN-17" value="" style="html=1;points=[];perimeter=orthogonalPerimeter;outlineConnect=0;targetShapes=umlLifeline;portConstraint=eastwest;newEdgeStyle={&quot;edgeStyle&quot;:&quot;elbowEdgeStyle&quot;,&quot;elbow&quot;:&quot;vertical&quot;,&quot;curved&quot;:0,&quot;rounded&quot;:0};" parent="aM9ryv3xv72pqoxQDRHE-1" vertex="1">
          <mxGeometry x="50" y="420" width="10" height="40" as="geometry" />
        </mxCell>
        <mxCell id="8wNnxw2Mur5SKuWLHebN-18" value="encryptedInfo =&lt;br style=&quot;border-color: var(--border-color);&quot;&gt;DecompressInfo(rowItem)" style="html=1;align=left;spacingLeft=2;endArrow=block;rounded=0;edgeStyle=orthogonalEdgeStyle;curved=0;rounded=0;" parent="aM9ryv3xv72pqoxQDRHE-1" target="8wNnxw2Mur5SKuWLHebN-17" edge="1">
          <mxGeometry x="0.1991" relative="1" as="geometry">
            <mxPoint x="55" y="400" as="sourcePoint" />
            <Array as="points">
              <mxPoint x="80" y="399.97" />
              <mxPoint x="80" y="429.97" />
            </Array>
            <mxPoint as="offset" />
          </mxGeometry>
        </mxCell>
        <mxCell id="8wNnxw2Mur5SKuWLHebN-19" value="" style="html=1;points=[];perimeter=orthogonalPerimeter;outlineConnect=0;targetShapes=umlLifeline;portConstraint=eastwest;newEdgeStyle={&quot;edgeStyle&quot;:&quot;elbowEdgeStyle&quot;,&quot;elbow&quot;:&quot;vertical&quot;,&quot;curved&quot;:0,&quot;rounded&quot;:0};" parent="aM9ryv3xv72pqoxQDRHE-1" vertex="1">
          <mxGeometry x="50" y="560" width="10" height="40" as="geometry" />
        </mxCell>
        <mxCell id="8wNnxw2Mur5SKuWLHebN-20" value="returnInfo(Info)" style="html=1;align=left;spacingLeft=2;endArrow=block;rounded=0;edgeStyle=orthogonalEdgeStyle;curved=0;rounded=0;" parent="aM9ryv3xv72pqoxQDRHE-1" target="8wNnxw2Mur5SKuWLHebN-19" edge="1">
          <mxGeometry x="0.1991" relative="1" as="geometry">
            <mxPoint x="55" y="540" as="sourcePoint" />
            <Array as="points">
              <mxPoint x="80" y="539.97" />
              <mxPoint x="80" y="569.97" />
            </Array>
            <mxPoint as="offset" />
          </mxGeometry>
        </mxCell>
        <mxCell id="8wNnxw2Mur5SKuWLHebN-22" value="" style="html=1;points=[];perimeter=orthogonalPerimeter;outlineConnect=0;targetShapes=umlLifeline;portConstraint=eastwest;newEdgeStyle={&quot;edgeStyle&quot;:&quot;elbowEdgeStyle&quot;,&quot;elbow&quot;:&quot;vertical&quot;,&quot;curved&quot;:0,&quot;rounded&quot;:0};" parent="aM9ryv3xv72pqoxQDRHE-1" vertex="1">
          <mxGeometry x="45" y="670" width="10" height="460" as="geometry" />
        </mxCell>
        <mxCell id="8wNnxw2Mur5SKuWLHebN-23" value="" style="html=1;points=[];perimeter=orthogonalPerimeter;outlineConnect=0;targetShapes=umlLifeline;portConstraint=eastwest;newEdgeStyle={&quot;edgeStyle&quot;:&quot;elbowEdgeStyle&quot;,&quot;elbow&quot;:&quot;vertical&quot;,&quot;curved&quot;:0,&quot;rounded&quot;:0};" parent="aM9ryv3xv72pqoxQDRHE-1" vertex="1">
          <mxGeometry x="50" y="700" width="10" height="40" as="geometry" />
        </mxCell>
        <mxCell id="8wNnxw2Mur5SKuWLHebN-24" value="neighboors = GetSurroudingVirtualTables()" style="html=1;align=left;spacingLeft=2;endArrow=block;rounded=0;edgeStyle=orthogonalEdgeStyle;curved=0;rounded=0;" parent="aM9ryv3xv72pqoxQDRHE-1" target="8wNnxw2Mur5SKuWLHebN-23" edge="1">
          <mxGeometry x="0.1991" relative="1" as="geometry">
            <mxPoint x="55" y="680" as="sourcePoint" />
            <Array as="points">
              <mxPoint x="80" y="679.97" />
              <mxPoint x="80" y="709.97" />
            </Array>
            <mxPoint as="offset" />
          </mxGeometry>
        </mxCell>
        <mxCell id="8wNnxw2Mur5SKuWLHebN-53" value="" style="html=1;points=[];perimeter=orthogonalPerimeter;outlineConnect=0;targetShapes=umlLifeline;portConstraint=eastwest;newEdgeStyle={&quot;edgeStyle&quot;:&quot;elbowEdgeStyle&quot;,&quot;elbow&quot;:&quot;vertical&quot;,&quot;curved&quot;:0,&quot;rounded&quot;:0};" parent="aM9ryv3xv72pqoxQDRHE-1" vertex="1">
          <mxGeometry x="50" y="1109" width="10" height="40" as="geometry" />
        </mxCell>
        <mxCell id="8wNnxw2Mur5SKuWLHebN-54" value="returnInfo(Info)" style="html=1;align=left;spacingLeft=2;endArrow=block;rounded=0;edgeStyle=orthogonalEdgeStyle;curved=0;rounded=0;" parent="aM9ryv3xv72pqoxQDRHE-1" target="8wNnxw2Mur5SKuWLHebN-53" edge="1">
          <mxGeometry x="0.1991" relative="1" as="geometry">
            <mxPoint x="55" y="1089" as="sourcePoint" />
            <Array as="points">
              <mxPoint x="80" y="1088.97" />
              <mxPoint x="80" y="1118.97" />
            </Array>
            <mxPoint as="offset" />
          </mxGeometry>
        </mxCell>
        <mxCell id="aM9ryv3xv72pqoxQDRHE-5" value="Neighboor Beholder" style="shape=umlLifeline;perimeter=lifelinePerimeter;whiteSpace=wrap;html=1;container=0;dropTarget=0;collapsible=0;recursiveResize=0;outlineConnect=0;portConstraint=eastwest;newEdgeStyle={&quot;edgeStyle&quot;:&quot;elbowEdgeStyle&quot;,&quot;elbow&quot;:&quot;vertical&quot;,&quot;curved&quot;:0,&quot;rounded&quot;:0};" parent="1" vertex="1">
          <mxGeometry x="170" y="789" width="100" height="230" as="geometry" />
        </mxCell>
        <mxCell id="aM9ryv3xv72pqoxQDRHE-6" value="" style="html=1;points=[];perimeter=orthogonalPerimeter;outlineConnect=0;targetShapes=umlLifeline;portConstraint=eastwest;newEdgeStyle={&quot;edgeStyle&quot;:&quot;elbowEdgeStyle&quot;,&quot;elbow&quot;:&quot;vertical&quot;,&quot;curved&quot;:0,&quot;rounded&quot;:0};" parent="aM9ryv3xv72pqoxQDRHE-5" vertex="1">
          <mxGeometry x="45" y="60" width="10" height="160" as="geometry" />
        </mxCell>
        <mxCell id="8wNnxw2Mur5SKuWLHebN-3" value="records &amp;gt; 0" style="shape=umlFrame;whiteSpace=wrap;html=1;pointerEvents=0;width=85;height=15;" parent="1" vertex="1">
          <mxGeometry x="-50" y="320" width="410" height="390" as="geometry" />
        </mxCell>
        <mxCell id="8wNnxw2Mur5SKuWLHebN-4" value="" style="shape=umlDestroy;whiteSpace=wrap;html=1;strokeWidth=3;targetShapes=umlLifeline;" parent="1" vertex="1">
          <mxGeometry x="65" y="200" width="30" height="30" as="geometry" />
        </mxCell>
        <mxCell id="8wNnxw2Mur5SKuWLHebN-10" value="for row in table" style="shape=umlFrame;whiteSpace=wrap;html=1;pointerEvents=0;width=100;height=15;" parent="1" vertex="1">
          <mxGeometry x="-40" y="340" width="370" height="320" as="geometry" />
        </mxCell>
        <mxCell id="8wNnxw2Mur5SKuWLHebN-14" value="if request == rowItem" style="shape=umlFrame;whiteSpace=wrap;html=1;pointerEvents=0;width=100;height=30;" parent="1" vertex="1">
          <mxGeometry x="-30" y="360" width="360" height="290" as="geometry" />
        </mxCell>
        <mxCell id="8wNnxw2Mur5SKuWLHebN-15" value="" style="html=1;points=[];perimeter=orthogonalPerimeter;outlineConnect=0;targetShapes=umlLifeline;portConstraint=eastwest;newEdgeStyle={&quot;edgeStyle&quot;:&quot;elbowEdgeStyle&quot;,&quot;elbow&quot;:&quot;vertical&quot;,&quot;curved&quot;:0,&quot;rounded&quot;:0};" parent="1" vertex="1">
          <mxGeometry x="80" y="390" width="10" height="40" as="geometry" />
        </mxCell>
        <mxCell id="8wNnxw2Mur5SKuWLHebN-16" value="Info = DecryptInfo(encryptedInfo)" style="html=1;align=left;spacingLeft=2;endArrow=block;rounded=0;edgeStyle=orthogonalEdgeStyle;curved=0;rounded=0;" parent="1" target="8wNnxw2Mur5SKuWLHebN-15" edge="1">
          <mxGeometry x="0.1991" relative="1" as="geometry">
            <mxPoint x="85" y="370" as="sourcePoint" />
            <Array as="points">
              <mxPoint x="110" y="369.97" />
              <mxPoint x="110" y="399.97" />
            </Array>
            <mxPoint as="offset" />
          </mxGeometry>
        </mxCell>
        <mxCell id="8wNnxw2Mur5SKuWLHebN-21" value="" style="shape=umlDestroy;whiteSpace=wrap;html=1;strokeWidth=3;targetShapes=umlLifeline;" parent="1" vertex="1">
          <mxGeometry x="65" y="680" width="30" height="30" as="geometry" />
        </mxCell>
        <mxCell id="8wNnxw2Mur5SKuWLHebN-25" value="for neighboor in neighboors" style="shape=umlFrame;whiteSpace=wrap;html=1;pointerEvents=0;width=90;height=30;" parent="1" vertex="1">
          <mxGeometry x="-35" y="784" width="420" height="545" as="geometry" />
        </mxCell>
        <mxCell id="8wNnxw2Mur5SKuWLHebN-30" value="GetMessage(request)" style="html=1;verticalAlign=bottom;endArrow=block;edgeStyle=elbowEdgeStyle;elbow=vertical;curved=0;rounded=0;" parent="1" target="aM9ryv3xv72pqoxQDRHE-6" edge="1">
          <mxGeometry width="80" relative="1" as="geometry">
            <mxPoint x="85" y="849" as="sourcePoint" />
            <mxPoint x="190" y="879" as="targetPoint" />
            <Array as="points">
              <mxPoint x="140" y="849" />
            </Array>
          </mxGeometry>
        </mxCell>
        <mxCell id="8wNnxw2Mur5SKuWLHebN-47" value="Runs the same code we are describing on the original Beholder" style="shape=callout;whiteSpace=wrap;html=1;perimeter=calloutPerimeter;position2=0.42;" parent="1" vertex="1">
          <mxGeometry x="230" y="839" width="120" height="80" as="geometry" />
        </mxCell>
        <mxCell id="8wNnxw2Mur5SKuWLHebN-48" value="" style="html=1;points=[];perimeter=orthogonalPerimeter;outlineConnect=0;targetShapes=umlLifeline;portConstraint=eastwest;newEdgeStyle={&quot;edgeStyle&quot;:&quot;elbowEdgeStyle&quot;,&quot;elbow&quot;:&quot;vertical&quot;,&quot;curved&quot;:0,&quot;rounded&quot;:0};" parent="1" vertex="1">
          <mxGeometry x="220" y="949" width="10" height="40" as="geometry" />
        </mxCell>
        <mxCell id="8wNnxw2Mur5SKuWLHebN-49" value="..." style="html=1;align=left;spacingLeft=2;endArrow=block;rounded=0;edgeStyle=orthogonalEdgeStyle;curved=0;rounded=0;" parent="1" target="8wNnxw2Mur5SKuWLHebN-48" edge="1">
          <mxGeometry relative="1" as="geometry">
            <mxPoint x="225" y="929" as="sourcePoint" />
            <Array as="points">
              <mxPoint x="255" y="959" />
            </Array>
          </mxGeometry>
        </mxCell>
        <mxCell id="8wNnxw2Mur5SKuWLHebN-50" value="none or Info" style="html=1;verticalAlign=bottom;endArrow=open;dashed=1;endSize=8;edgeStyle=elbowEdgeStyle;elbow=vertical;curved=0;rounded=0;" parent="1" source="aM9ryv3xv72pqoxQDRHE-6" edge="1">
          <mxGeometry relative="1" as="geometry">
            <mxPoint x="150" y="929" as="sourcePoint" />
            <mxPoint x="85" y="999" as="targetPoint" />
            <Array as="points">
              <mxPoint x="130" y="999" />
            </Array>
          </mxGeometry>
        </mxCell>
        <mxCell id="8wNnxw2Mur5SKuWLHebN-51" value="" style="shape=umlDestroy;whiteSpace=wrap;html=1;strokeWidth=3;targetShapes=umlLifeline;" parent="1" vertex="1">
          <mxGeometry x="205" y="1009" width="30" height="30" as="geometry" />
        </mxCell>
        <mxCell id="8wNnxw2Mur5SKuWLHebN-52" value="if response is not none" style="shape=umlFrame;whiteSpace=wrap;html=1;pointerEvents=0;width=80;height=30;" parent="1" vertex="1">
          <mxGeometry x="-30" y="1124" width="410" height="105" as="geometry" />
        </mxCell>
        <mxCell id="8wNnxw2Mur5SKuWLHebN-55" value="" style="shape=umlDestroy;whiteSpace=wrap;html=1;strokeWidth=3;targetShapes=umlLifeline;" parent="1" vertex="1">
          <mxGeometry x="65" y="1199" width="30" height="30" as="geometry" />
        </mxCell>
        <mxCell id="8wNnxw2Mur5SKuWLHebN-56" value="" style="html=1;points=[];perimeter=orthogonalPerimeter;outlineConnect=0;targetShapes=umlLifeline;portConstraint=eastwest;newEdgeStyle={&quot;edgeStyle&quot;:&quot;elbowEdgeStyle&quot;,&quot;elbow&quot;:&quot;vertical&quot;,&quot;curved&quot;:0,&quot;rounded&quot;:0};" parent="1" vertex="1">
          <mxGeometry x="75" y="1229" width="10" height="111" as="geometry" />
        </mxCell>
        <mxCell id="8wNnxw2Mur5SKuWLHebN-59" value="" style="html=1;points=[];perimeter=orthogonalPerimeter;outlineConnect=0;targetShapes=umlLifeline;portConstraint=eastwest;newEdgeStyle={&quot;edgeStyle&quot;:&quot;elbowEdgeStyle&quot;,&quot;elbow&quot;:&quot;vertical&quot;,&quot;curved&quot;:0,&quot;rounded&quot;:0};" parent="1" vertex="1">
          <mxGeometry x="80" y="1264" width="10" height="40" as="geometry" />
        </mxCell>
        <mxCell id="8wNnxw2Mur5SKuWLHebN-60" value="returnInfo(None)" style="html=1;align=left;spacingLeft=2;endArrow=block;rounded=0;edgeStyle=orthogonalEdgeStyle;curved=0;rounded=0;" parent="1" target="8wNnxw2Mur5SKuWLHebN-59" edge="1">
          <mxGeometry x="0.1991" relative="1" as="geometry">
            <mxPoint x="85" y="1244" as="sourcePoint" />
            <Array as="points">
              <mxPoint x="110" y="1243.97" />
              <mxPoint x="110" y="1273.97" />
            </Array>
            <mxPoint as="offset" />
          </mxGeometry>
        </mxCell>
        <mxCell id="8wNnxw2Mur5SKuWLHebN-61" value="" style="html=1;points=[];perimeter=orthogonalPerimeter;outlineConnect=0;targetShapes=umlLifeline;portConstraint=eastwest;newEdgeStyle={&quot;edgeStyle&quot;:&quot;elbowEdgeStyle&quot;,&quot;elbow&quot;:&quot;vertical&quot;,&quot;curved&quot;:0,&quot;rounded&quot;:0};" parent="1" vertex="1">
          <mxGeometry x="80" y="1079" width="10" height="40" as="geometry" />
        </mxCell>
        <mxCell id="8wNnxw2Mur5SKuWLHebN-62" value="LogEvent(msg, eventType)" style="html=1;align=left;spacingLeft=2;endArrow=block;rounded=0;edgeStyle=orthogonalEdgeStyle;curved=0;rounded=0;" parent="1" target="8wNnxw2Mur5SKuWLHebN-61" edge="1">
          <mxGeometry x="0.1991" relative="1" as="geometry">
            <mxPoint x="85" y="1059" as="sourcePoint" />
            <Array as="points">
              <mxPoint x="110" y="1058.97" />
              <mxPoint x="110" y="1088.97" />
            </Array>
            <mxPoint as="offset" />
          </mxGeometry>
        </mxCell>
        <mxCell id="8wNnxw2Mur5SKuWLHebN-64" value="" style="html=1;points=[];perimeter=orthogonalPerimeter;outlineConnect=0;targetShapes=umlLifeline;portConstraint=eastwest;newEdgeStyle={&quot;edgeStyle&quot;:&quot;elbowEdgeStyle&quot;,&quot;elbow&quot;:&quot;vertical&quot;,&quot;curved&quot;:0,&quot;rounded&quot;:0};" parent="1" vertex="1">
          <mxGeometry x="80" y="530" width="10" height="40" as="geometry" />
        </mxCell>
        <mxCell id="8wNnxw2Mur5SKuWLHebN-65" value="LogEvent(msg, eventType)" style="html=1;align=left;spacingLeft=2;endArrow=block;rounded=0;edgeStyle=orthogonalEdgeStyle;curved=0;rounded=0;" parent="1" target="8wNnxw2Mur5SKuWLHebN-64" edge="1">
          <mxGeometry x="0.1991" relative="1" as="geometry">
            <mxPoint x="85" y="510" as="sourcePoint" />
            <Array as="points">
              <mxPoint x="110" y="509.97" />
              <mxPoint x="110" y="539.97" />
            </Array>
            <mxPoint as="offset" />
          </mxGeometry>
        </mxCell>
        <mxCell id="8wNnxw2Mur5SKuWLHebN-66" value="" style="shape=umlDestroy;whiteSpace=wrap;html=1;strokeWidth=3;targetShapes=umlLifeline;" parent="1" vertex="1">
          <mxGeometry x="65" y="1340" width="30" height="30" as="geometry" />
        </mxCell>
      </root>
    </mxGraphModel>
  </diagram>
</mxfile>
